# 3ds Max Wavefront OBJ Exporter v0.97b - (c)2007 guruware
# File Created: 10.01.2021 19:36:45

mtllib mueblem.mtl

#
# object Plane01
#

v  -5.4599 0.7788 -9.0420
v  -5.4649 0.7788 -8.4013
v  -5.4649 39.4728 -8.4013
v  -5.4600 39.4728 -9.0420
v  -5.6244 0.7788 12.3876
v  -5.6296 0.7788 13.0675
v  -5.6296 39.4728 13.0675
v  -5.6244 39.4728 12.3876
v  1.0190 39.4728 -8.3516
v  1.0190 0.7788 -8.3516
v  1.0239 0.7788 -8.9922
v  1.0239 39.4728 -8.9922
v  0.8542 39.4728 13.1173
v  0.8542 0.7788 13.1173
v  0.8594 0.7788 12.4374
v  0.8594 39.4728 12.4374
# 16 vertices

vn -1.0000 -0.0000 -0.0077
vn 1.0000 0.0000 0.0077
vn 0.0000 -1.0000 0.0000
vn -0.0077 0.0000 1.0000
vn -0.0000 1.0000 -0.0000
vn 0.0077 0.0000 -1.0000
# 6 vertex normals

vt -0.4963 -1.2500 0.0000
vt -0.4384 -1.2500 0.0000
vt -0.4384 2.2500 0.0000
vt -0.4963 2.2500 0.0000
vt 1.4419 -1.2500 0.0000
vt 1.5034 -1.2500 0.0000
vt 1.5034 2.2500 0.0000
vt 1.4419 2.2500 0.0000
vt 1.4451 2.2500 0.0000
vt 1.4451 -1.2500 0.0000
vt 1.5030 -1.2500 0.0000
vt 1.5030 2.2500 0.0000
vt -0.4967 2.2500 0.0000
vt -0.4967 -1.2500 0.0000
vt -0.4352 -1.2500 0.0000
vt -0.4352 2.2500 0.0000
vt 0.7367 1.4384 0.0000
vt 0.7376 1.4963 0.0000
vt 0.3157 1.5030 0.0000
vt 0.3148 1.4451 0.0000
vt 0.2633 2.2500 0.0000
vt 0.2633 -1.2500 0.0000
vt 0.6852 -1.2500 0.0000
vt 0.6852 2.2500 0.0000
vt 0.2624 1.4963 0.0000
vt 0.2633 1.4384 0.0000
vt 0.6852 1.4451 0.0000
vt 0.6843 1.5030 0.0000
vt 0.7376 -1.2500 0.0000
vt 0.7376 2.2500 0.0000
vt 0.3157 2.2500 0.0000
vt 0.3157 -1.2500 0.0000
vt 0.7059 -0.5034 0.0000
vt 0.7069 -0.4419 0.0000
vt 0.2850 -0.4352 0.0000
vt 0.2841 -0.4967 0.0000
vt 0.2941 2.2500 0.0000
vt 0.2941 -1.2500 0.0000
vt 0.7159 -1.2500 0.0000
vt 0.7159 2.2500 0.0000
vt 0.2931 -0.4419 0.0000
vt 0.2941 -0.5034 0.0000
vt 0.7159 -0.4967 0.0000
vt 0.7150 -0.4352 0.0000
vt 0.7069 -1.2500 0.0000
vt 0.7069 2.2500 0.0000
vt 0.2850 2.2500 0.0000
vt 0.2850 -1.2500 0.0000
# 48 texture coords

o Plane01
g Plane01
usemtl Mueble
s off
f 1/1/1 2/2/1 3/3/1 
f 3/3/1 4/4/1 1/1/1 
f 5/5/1 6/6/1 7/7/1 
f 7/7/1 8/8/1 5/5/1 
f 9/9/2 10/10/2 11/11/2 
f 11/11/2 12/12/2 9/9/2 
f 13/13/2 14/14/2 15/15/2 
f 15/15/2 16/16/2 13/13/2 
f 2/17/3 1/18/3 11/19/3 
f 11/19/3 10/20/3 2/17/3 
f 3/21/4 2/22/4 10/23/4 
f 10/23/4 9/24/4 3/21/4 
f 4/25/5 3/26/5 9/27/5 
f 9/27/5 12/28/5 4/25/5 
f 1/29/6 4/30/6 12/31/6 
f 12/31/6 11/32/6 1/29/6 
f 6/33/3 5/34/3 15/35/3 
f 15/35/3 14/36/3 6/33/3 
f 7/37/4 6/38/4 14/39/4 
f 14/39/4 13/40/4 7/37/4 
f 8/41/5 7/42/5 13/43/5 
f 13/43/5 16/44/5 8/41/5 
f 5/45/6 8/46/6 16/47/6 
f 16/47/6 15/48/6 5/45/6 
# 24 faces

#
# object Object01
#

v  -5.3820 2.4652 1.6601
v  -5.3871 2.4652 2.3286
v  -5.3871 38.4559 2.3286
v  -5.3820 38.4559 1.6601
v  0.9366 38.4559 2.3771
v  0.9366 2.4652 2.3771
v  0.9418 2.4652 1.7087
v  0.9418 38.4559 1.7087
# 8 vertices

vn -1.0000 -0.0000 -0.0077
vn 1.0000 0.0000 0.0077
vn 0.0000 -1.0000 0.0000
vn -0.0077 0.0000 1.0000
vn -0.0000 1.0000 -0.0000
vn 0.0077 -0.0000 -1.0000
# 6 vertex normals

vt 0.4713 -1.0975 0.0000
vt 0.5318 -1.0975 0.0000
vt 0.5318 2.1580 0.0000
vt 0.4713 2.1580 0.0000
vt 0.4747 2.1580 0.0000
vt 0.4747 -1.0975 0.0000
vt 0.5352 -1.0975 0.0000
vt 0.5352 2.1580 0.0000
vt 0.7109 0.4682 0.0000
vt 0.7118 0.5287 0.0000
vt 0.3004 0.5352 0.0000
vt 0.2995 0.4747 0.0000
vt 0.2891 2.1580 0.0000
vt 0.2891 -1.0975 0.0000
vt 0.7005 -1.0975 0.0000
vt 0.7005 2.1580 0.0000
vt 0.2882 0.5287 0.0000
vt 0.2891 0.4682 0.0000
vt 0.7005 0.4747 0.0000
vt 0.6996 0.5352 0.0000
vt 0.7118 -1.0975 0.0000
vt 0.7118 2.1580 0.0000
vt 0.3004 2.1580 0.0000
vt 0.3004 -1.0975 0.0000
# 24 texture coords

o Object01
g Object01
usemtl Mueble
s off
f 17/49/7 18/50/7 19/51/7 
f 19/51/7 20/52/7 17/49/7 
f 21/53/8 22/54/8 23/55/8 
f 23/55/8 24/56/8 21/53/8 
f 18/57/9 17/58/9 23/59/9 
f 23/59/9 22/60/9 18/57/9 
f 19/61/10 18/62/10 22/63/10 
f 22/63/10 21/64/10 19/61/10 
f 20/65/11 19/66/11 21/67/11 
f 21/67/11 24/68/11 20/65/11 
f 17/69/12 20/70/12 24/71/12 
f 24/71/12 23/72/12 17/69/12 
# 12 faces

#
# object Object02
#

v  0.8594 38.4608 12.4374
v  1.0190 38.4608 -8.3516
v  1.0190 39.4728 -8.3516
v  0.8594 39.4728 12.4374
v  1.0190 2.4633 -8.3516
v  0.8594 2.4633 12.4374
v  0.8594 0.7788 12.4374
v  1.0190 0.7788 -8.3516
v  -5.3048 38.4608 -8.4001
v  -5.3048 39.4728 -8.4001
v  -5.4643 38.4608 12.3888
v  -5.4643 39.4728 12.3888
v  -5.4643 2.4633 12.3888
v  -5.4643 0.7788 12.3888
v  -5.3048 2.4633 -8.4001
v  -5.3048 0.7788 -8.4001
# 16 vertices

vn 1.0000 0.0000 0.0077
vn 0.0077 0.0000 -1.0000
vn 0.0000 -1.0000 0.0000
vn -0.0077 0.0000 1.0000
vn -0.0000 1.0000 -0.0000
vn -0.0000 1.0000 0.0000
vn 0.0077 -0.0000 -1.0000
vn -1.0000 -0.0000 -0.0077
# 8 vertex normals

vt -0.4352 2.1585 0.0000
vt 1.4451 2.1585 0.0000
vt 1.4451 2.2500 0.0000
vt -0.4352 2.2500 0.0000
vt 1.4451 -1.0976 0.0000
vt -0.4352 -1.0976 0.0000
vt -0.4352 -1.2500 0.0000
vt 1.4451 -1.2500 0.0000
vt 0.7262 2.1585 0.0000
vt 0.7262 2.2500 0.0000
vt 0.3148 2.2500 0.0000
vt 0.3148 2.1585 0.0000
vt 0.6964 -0.4417 0.0000
vt 0.7262 1.4386 0.0000
vt 0.3148 1.4451 0.0000
vt 0.2850 -0.4352 0.0000
vt 0.3036 2.2500 0.0000
vt 0.3036 2.1585 0.0000
vt 0.7150 2.1585 0.0000
vt 0.7150 2.2500 0.0000
vt 0.2738 1.4386 0.0000
vt 0.3036 -0.4417 0.0000
vt 0.7150 -0.4352 0.0000
vt 0.6852 1.4451 0.0000
vt 0.3036 -1.0976 0.0000
vt 0.3036 -1.2500 0.0000
vt 0.7150 -1.2500 0.0000
vt 0.7150 -1.0976 0.0000
vt 0.7262 -1.2500 0.0000
vt 0.7262 -1.0976 0.0000
vt 0.3148 -1.0976 0.0000
vt 0.3148 -1.2500 0.0000
vt 0.5746 -0.4404 0.0000
vt 0.7250 -0.4161 0.0000
vt 0.4254 1.4404 0.0000
vt 0.2750 1.4161 0.0000
vt 2.1949 1.4402 0.0000
vt 2.1033 1.4402 0.0000
vt 2.1033 -0.4402 0.0000
vt 2.1949 -0.4402 0.0000
# 40 texture coords

o Object02
g Object02
usemtl Mueble
s off
f 25/73/13 26/74/13 27/75/13 
f 27/75/13 28/76/13 25/73/13 
f 29/77/13 30/78/13 31/79/13 
f 31/79/13 32/80/13 29/77/13 
f 33/81/14 34/82/14 27/83/14 
f 27/83/14 26/84/14 33/81/14 
f 35/85/15 33/86/15 26/87/15 
f 26/87/15 25/88/15 35/85/15 
f 36/89/16 35/90/16 25/91/16 
f 25/91/16 28/92/16 36/89/16 
f 34/93/17 36/94/17 28/95/17 
f 28/95/17 27/96/17 34/93/17 
f 37/97/16 38/98/16 31/99/16 
f 31/99/16 30/100/16 37/97/16 
f 39/93/18 37/94/18 30/95/18 
f 30/95/18 29/96/18 39/93/18 
f 40/101/19 39/102/19 29/103/19 
f 29/103/19 32/104/19 40/101/19 
f 38/85/15 40/86/15 32/87/15 
f 32/87/15 31/88/15 38/85/15 
f 38/105/20 37/106/20 39/107/20 
f 39/107/20 40/108/20 38/105/20 
f 34/109/20 33/110/20 35/111/20 
f 35/111/20 36/112/20 34/109/20 
# 24 faces

#
# object Object03
#

v  0.8607 33.3124 12.4374
v  0.8607 32.6439 12.4374
v  0.9379 32.6439 2.3772
v  0.9379 33.3124 2.3772
v  1.0203 32.6439 -8.3516
v  1.0203 33.3124 -8.3516
v  0.9430 33.3124 1.7087
v  0.9430 32.6439 1.7087
v  1.0203 26.4122 -8.3516
v  1.0203 27.0807 -8.3516
v  0.9430 27.0807 1.7087
v  0.9430 26.4122 1.7087
v  0.9379 26.4122 2.3772
v  0.9379 27.0807 2.3772
v  0.8607 27.0807 12.4374
v  0.8607 26.4122 12.4374
v  1.0203 20.4470 -8.3516
v  1.0203 21.1155 -8.3516
v  0.9430 21.1155 1.7087
v  0.9431 20.4470 1.7087
v  0.9379 20.4470 2.3772
v  0.9379 21.1155 2.3772
v  0.8607 21.1155 12.4374
v  0.8607 20.4470 12.4374
v  1.0203 14.2364 -8.3516
v  1.0203 14.9049 -8.3516
v  0.9431 14.9049 1.7087
v  0.9431 14.2364 1.7087
v  0.9379 14.2364 2.3772
v  0.9379 14.9049 2.3772
v  0.8607 14.9049 12.4374
v  0.8607 14.2364 12.4374
v  1.0203 8.1578 -8.3516
v  1.0203 8.8263 -8.3516
v  0.9431 8.8263 1.7087
v  0.9431 8.1578 1.7087
v  0.9379 8.1578 2.3772
v  0.9379 8.8263 2.3772
v  0.8607 8.8263 12.4374
v  0.8607 8.1578 12.4374
v  -5.1441 32.6439 12.3913
v  -5.0669 32.6439 2.3311
v  -5.1441 33.3124 12.3913
v  -5.0669 33.3124 2.3311
v  -4.9846 33.3124 -8.3976
v  -5.0618 33.3124 1.6626
v  -4.9846 32.6439 -8.3976
v  -5.0618 32.6439 1.6626
v  -4.9846 27.0807 -8.3976
v  -5.0618 27.0807 1.6626
v  -4.9846 26.4122 -8.3976
v  -5.0618 26.4122 1.6626
v  -5.0669 27.0807 2.3311
v  -5.1441 27.0807 12.3913
v  -5.0669 26.4122 2.3311
v  -5.1441 26.4122 12.3913
v  -4.9846 21.1155 -8.3976
v  -5.0618 21.1155 1.6626
v  -4.9846 20.4470 -8.3976
v  -5.0618 20.4470 1.6626
v  -5.0669 21.1155 2.3311
v  -5.1441 21.1155 12.3913
v  -5.0669 20.4470 2.3311
v  -5.1441 20.4470 12.3913
v  -4.9846 14.9049 -8.3976
v  -5.0618 14.9049 1.6626
v  -4.9846 14.2364 -8.3976
v  -5.0618 14.2364 1.6626
v  -5.0669 14.9049 2.3311
v  -5.1441 14.9049 12.3913
v  -5.0669 14.2364 2.3311
v  -5.1441 14.2364 12.3913
v  -4.9846 8.8263 -8.3976
v  -5.0618 8.8263 1.6626
v  -4.9846 8.1578 -8.3976
v  -5.0618 8.1578 1.6626
v  -5.0669 8.8263 2.3311
v  -5.1441 8.8263 12.3913
v  -5.0669 8.1578 2.3311
v  -5.1441 8.1578 12.3913
# 80 vertices

vn 1.0000 0.0000 0.0077
vn 0.0000 -1.0000 0.0000
vn -0.0077 0.0000 1.0000
vn -0.0000 1.0000 -0.0000
vn 0.0077 0.0000 -1.0000
vn 0.0077 -0.0000 -1.0000
vn -0.0000 1.0000 0.0000
vn 0.0000 -1.0000 -0.0000
# 8 vertex normals

vt -0.4352 1.6928 0.0000
vt -0.4352 1.6323 0.0000
vt 0.4747 1.6323 0.0000
vt 0.4747 1.6928 0.0000
vt 1.4451 1.6323 0.0000
vt 1.4451 1.6928 0.0000
vt 0.5352 1.6928 0.0000
vt 0.5352 1.6323 0.0000
vt 1.4451 1.0686 0.0000
vt 1.4451 1.1291 0.0000
vt 0.5352 1.1291 0.0000
vt 0.5352 1.0686 0.0000
vt 0.4747 1.0686 0.0000
vt 0.4747 1.1291 0.0000
vt -0.4352 1.1291 0.0000
vt -0.4352 1.0686 0.0000
vt 1.4451 0.5291 0.0000
vt 1.4451 0.5895 0.0000
vt 0.5352 0.5895 0.0000
vt 0.5352 0.5291 0.0000
vt 0.4747 0.5291 0.0000
vt 0.4747 0.5895 0.0000
vt -0.4352 0.5895 0.0000
vt -0.4352 0.5291 0.0000
vt 1.4451 -0.0327 0.0000
vt 1.4451 0.0277 0.0000
vt 0.5352 0.0277 0.0000
vt 0.5352 -0.0327 0.0000
vt 0.4747 -0.0327 0.0000
vt 0.4747 0.0277 0.0000
vt -0.4352 0.0277 0.0000
vt -0.4352 -0.0327 0.0000
vt 1.4451 -0.5825 0.0000
vt 1.4451 -0.5221 0.0000
vt 0.5352 -0.5221 0.0000
vt 0.5352 -0.5825 0.0000
vt 0.4747 -0.5825 0.0000
vt 0.4747 -0.5221 0.0000
vt -0.4352 -0.5221 0.0000
vt -0.4352 -0.5825 0.0000
vt 0.6756 -0.4414 0.0000
vt 0.6900 0.4685 0.0000
vt 0.2994 0.4747 0.0000
vt 0.2850 -0.4352 0.0000
vt 0.3244 1.6928 0.0000
vt 0.3244 1.6323 0.0000
vt 0.7150 1.6323 0.0000
vt 0.7150 1.6928 0.0000
vt 0.3100 0.4685 0.0000
vt 0.3244 -0.4414 0.0000
vt 0.7150 -0.4352 0.0000
vt 0.7006 0.4747 0.0000
vt 0.6900 1.6323 0.0000
vt 0.6900 1.6928 0.0000
vt 0.2994 1.6928 0.0000
vt 0.2994 1.6323 0.0000
vt 0.2946 1.4389 0.0000
vt 0.3090 0.5290 0.0000
vt 0.6997 0.5352 0.0000
vt 0.6853 1.4451 0.0000
vt 0.7054 1.6323 0.0000
vt 0.7054 1.6928 0.0000
vt 0.3147 1.6928 0.0000
vt 0.3147 1.6323 0.0000
vt 0.6910 0.5290 0.0000
vt 0.7054 1.4389 0.0000
vt 0.3147 1.4451 0.0000
vt 0.3003 0.5352 0.0000
vt 0.3090 1.6928 0.0000
vt 0.3090 1.6323 0.0000
vt 0.6997 1.6323 0.0000
vt 0.6997 1.6928 0.0000
vt 0.7054 1.0686 0.0000
vt 0.7054 1.1291 0.0000
vt 0.3147 1.1291 0.0000
vt 0.3147 1.0686 0.0000
vt 0.3090 1.1291 0.0000
vt 0.3090 1.0686 0.0000
vt 0.6997 1.0686 0.0000
vt 0.6997 1.1291 0.0000
vt 0.6900 1.0686 0.0000
vt 0.6900 1.1291 0.0000
vt 0.2994 1.1291 0.0000
vt 0.2994 1.0686 0.0000
vt 0.3244 1.1291 0.0000
vt 0.3244 1.0686 0.0000
vt 0.7150 1.0686 0.0000
vt 0.7150 1.1291 0.0000
vt 0.7054 0.5291 0.0000
vt 0.7054 0.5895 0.0000
vt 0.3147 0.5895 0.0000
vt 0.3147 0.5291 0.0000
vt 0.3090 0.5895 0.0000
vt 0.3090 0.5291 0.0000
vt 0.6997 0.5291 0.0000
vt 0.6997 0.5895 0.0000
vt 0.6900 0.5291 0.0000
vt 0.6900 0.5895 0.0000
vt 0.2994 0.5895 0.0000
vt 0.2994 0.5291 0.0000
vt 0.3244 0.5895 0.0000
vt 0.3244 0.5291 0.0000
vt 0.7150 0.5291 0.0000
vt 0.7150 0.5895 0.0000
vt 0.7054 -0.0327 0.0000
vt 0.7054 0.0277 0.0000
vt 0.3147 0.0277 0.0000
vt 0.3147 -0.0327 0.0000
vt 0.3090 0.0277 0.0000
vt 0.3090 -0.0327 0.0000
vt 0.6997 -0.0327 0.0000
vt 0.6997 0.0277 0.0000
vt 0.6900 -0.0327 0.0000
vt 0.6900 0.0277 0.0000
vt 0.2994 0.0277 0.0000
vt 0.2994 -0.0327 0.0000
vt 0.3244 0.0277 0.0000
vt 0.3244 -0.0327 0.0000
vt 0.7150 -0.0327 0.0000
vt 0.7150 0.0277 0.0000
vt 0.7054 -0.5825 0.0000
vt 0.7054 -0.5221 0.0000
vt 0.3147 -0.5221 0.0000
vt 0.3147 -0.5825 0.0000
vt 0.3090 -0.5221 0.0000
vt 0.3090 -0.5825 0.0000
vt 0.6997 -0.5825 0.0000
vt 0.6997 -0.5221 0.0000
vt 0.6900 -0.5825 0.0000
vt 0.6900 -0.5221 0.0000
vt 0.2994 -0.5221 0.0000
vt 0.2994 -0.5825 0.0000
vt 0.3244 -0.5221 0.0000
vt 0.3244 -0.5825 0.0000
vt 0.7150 -0.5825 0.0000
vt 0.7150 -0.5221 0.0000
# 136 texture coords

o Object03
g Object03
usemtl Mueble
s off
f 41/113/21 42/114/21 43/115/21 
f 43/115/21 44/116/21 41/113/21 
f 45/117/21 46/118/21 47/119/21 
f 47/119/21 48/120/21 45/117/21 
f 49/121/21 50/122/21 51/123/21 
f 51/123/21 52/124/21 49/121/21 
f 53/125/21 54/126/21 55/127/21 
f 55/127/21 56/128/21 53/125/21 
f 57/129/21 58/130/21 59/131/21 
f 59/131/21 60/132/21 57/129/21 
f 61/133/21 62/134/21 63/135/21 
f 63/135/21 64/136/21 61/133/21 
f 65/137/21 66/138/21 67/139/21 
f 67/139/21 68/140/21 65/137/21 
f 69/141/21 70/142/21 71/143/21 
f 71/143/21 72/144/21 69/141/21 
f 73/145/21 74/146/21 75/147/21 
f 75/147/21 76/148/21 73/145/21 
f 77/149/21 78/150/21 79/151/21 
f 79/151/21 80/152/21 77/149/21 
f 81/153/22 82/154/22 43/155/22 
f 43/155/22 42/156/22 81/153/22 
f 83/157/23 81/158/23 42/159/23 
f 42/159/23 41/160/23 83/157/23 
f 84/161/24 83/162/24 41/163/24 
f 41/163/24 44/164/24 84/161/24 
f 82/165/25 84/166/25 44/167/25 
f 44/167/25 43/168/25 82/165/25 
f 85/169/24 86/170/24 47/171/24 
f 47/171/24 46/172/24 85/169/24 
f 87/173/26 85/174/26 46/175/26 
f 46/175/26 45/176/26 87/173/26 
f 88/177/22 87/178/22 45/179/22 
f 45/179/22 48/180/22 88/177/22 
f 86/181/23 88/182/23 48/183/23 
f 48/183/23 47/184/23 86/181/23 
f 89/169/24 90/170/24 51/171/24 
f 51/171/24 50/172/24 89/169/24 
f 91/185/26 89/186/26 50/187/26 
f 50/187/26 49/188/26 91/185/26 
f 92/177/22 91/178/22 49/179/22 
f 49/179/22 52/180/22 92/177/22 
f 90/189/23 92/190/23 52/191/23 
f 52/191/23 51/192/23 90/189/23 
f 93/161/24 94/162/24 55/163/24 
f 55/163/24 54/164/24 93/161/24 
f 95/193/25 93/194/25 54/195/25 
f 54/195/25 53/196/25 95/193/25 
f 96/153/22 95/154/22 53/155/22 
f 53/155/22 56/156/22 96/153/22 
f 94/197/23 96/198/23 56/199/23 
f 56/199/23 55/200/23 94/197/23 
f 97/169/27 98/170/27 59/171/27 
f 59/171/27 58/172/27 97/169/27 
f 99/201/25 97/202/25 58/203/25 
f 58/203/25 57/204/25 99/201/25 
f 100/177/28 99/178/28 57/179/28 
f 57/179/28 60/180/28 100/177/28 
f 98/205/23 100/206/23 60/207/23 
f 60/207/23 59/208/23 98/205/23 
f 101/161/24 102/162/24 63/163/24 
f 63/163/24 62/164/24 101/161/24 
f 103/209/25 101/210/25 62/211/25 
f 62/211/25 61/212/25 103/209/25 
f 104/153/22 103/154/22 61/155/22 
f 61/155/22 64/156/22 104/153/22 
f 102/213/23 104/214/23 64/215/23 
f 64/215/23 63/216/23 102/213/23 
f 105/169/27 106/170/27 67/171/27 
f 67/171/27 66/172/27 105/169/27 
f 107/217/25 105/218/25 66/219/25 
f 66/219/25 65/220/25 107/217/25 
f 108/177/28 107/178/28 65/179/28 
f 65/179/28 68/180/28 108/177/28 
f 106/221/23 108/222/23 68/223/23 
f 68/223/23 67/224/23 106/221/23 
f 109/161/27 110/162/27 71/163/27 
f 71/163/27 70/164/27 109/161/27 
f 111/225/25 109/226/25 70/227/25 
f 70/227/25 69/228/25 111/225/25 
f 112/153/28 111/154/28 69/155/28 
f 69/155/28 72/156/28 112/153/28 
f 110/229/23 112/230/23 72/231/23 
f 72/231/23 71/232/23 110/229/23 
f 113/169/24 114/170/24 75/171/24 
f 75/171/24 74/172/24 113/169/24 
f 115/233/25 113/234/25 74/235/25 
f 74/235/25 73/236/25 115/233/25 
f 116/177/22 115/178/22 73/179/22 
f 73/179/22 76/180/22 116/177/22 
f 114/237/23 116/238/23 76/239/23 
f 76/239/23 75/240/23 114/237/23 
f 117/161/24 118/162/24 79/163/24 
f 79/163/24 78/164/24 117/161/24 
f 119/241/25 117/242/25 78/243/25 
f 78/243/25 77/244/25 119/241/25 
f 120/153/22 119/154/22 77/155/22 
f 77/155/22 80/156/22 120/153/22 
f 118/245/23 120/246/23 80/247/23 
f 80/247/23 79/248/23 118/245/23 
# 100 faces

#
# object Box03
#

v  1.0239 0.7788 -8.9922
v  1.3564 0.7788 -8.9897
v  1.1867 0.7788 13.1198
v  0.8542 0.7788 13.1173
v  1.0239 39.4728 -8.9922
v  0.8542 39.4728 13.1173
v  1.1867 39.4728 13.1198
v  1.3564 39.4728 -8.9897
# 8 vertices

vn 0.0000 -1.0000 -0.0000
vn 0.0000 1.0000 -0.0000
vn -1.0000 0.0000 -0.0077
vn -0.0077 0.0000 1.0000
vn 1.0000 0.0000 0.0077
vn 0.0077 0.0000 -1.0000
# 6 vertex normals

vt 0.3157 1.5030 0.0000
vt 0.2941 1.5034 0.0000
vt 0.2624 -0.4963 0.0000
vt 0.2841 -0.4967 0.0000
vt 0.6843 1.5030 0.0000
vt 0.7159 -0.4967 0.0000
vt 0.7376 -0.4963 0.0000
vt 0.7059 1.5034 0.0000
vt -0.5030 -1.2500 0.0000
vt 1.4967 -1.2500 0.0000
vt 1.4967 2.2500 0.0000
vt -0.5030 2.2500 0.0000
vt 0.7159 -1.2500 0.0000
vt 0.7376 -1.2500 0.0000
vt 0.7376 2.2500 0.0000
vt 0.7159 2.2500 0.0000
vt -0.4963 -1.2500 0.0000
vt 1.5034 -1.2500 0.0000
vt 1.5034 2.2500 0.0000
vt -0.4963 2.2500 0.0000
vt 0.2941 -1.2500 0.0000
vt 0.3157 -1.2500 0.0000
vt 0.3157 2.2500 0.0000
vt 0.2941 2.2500 0.0000
# 24 texture coords

o Box03
g Box03
usemtl Mueble
s off
f 121/249/29 122/250/29 123/251/29 
f 123/251/29 124/252/29 121/249/29 
f 125/253/30 126/254/30 127/255/30 
f 127/255/30 128/256/30 125/253/30 
f 121/257/31 124/258/31 126/259/31 
f 126/259/31 125/260/31 121/257/31 
f 124/261/32 123/262/32 127/263/32 
f 127/263/32 126/264/32 124/261/32 
f 123/265/33 122/266/33 128/267/33 
f 128/267/33 127/268/33 123/265/33 
f 122/269/34 121/270/34 125/271/34 
f 125/271/34 128/272/34 122/269/34 
# 12 faces

#
# object Object04
#

v  -5.0669 32.6439 2.3311
v  -5.1441 32.6439 12.3913
v  -5.1441 33.3124 12.3913
v  -5.0669 33.3124 2.3311
v  -5.0618 33.3124 1.6626
v  -4.9846 33.3124 -8.3976
v  -4.9846 32.6439 -8.3976
v  -5.0618 32.6439 1.6626
v  -5.0618 27.0807 1.6626
v  -4.9846 27.0807 -8.3976
v  -4.9846 26.4122 -8.3976
v  -5.0618 26.4122 1.6626
v  -5.1441 27.0807 12.3913
v  -5.0669 27.0807 2.3311
v  -5.0669 26.4122 2.3311
v  -5.1441 26.4122 12.3913
v  -5.0618 21.1155 1.6626
v  -4.9846 21.1155 -8.3976
v  -4.9846 20.4470 -8.3976
v  -5.0618 20.4470 1.6626
v  -5.1441 21.1155 12.3913
v  -5.0669 21.1155 2.3311
v  -5.0669 20.4470 2.3311
v  -5.1441 20.4470 12.3913
v  -5.0618 14.9049 1.6626
v  -4.9846 14.9049 -8.3976
v  -4.9846 14.2364 -8.3976
v  -5.0618 14.2364 1.6626
v  -5.1441 14.9049 12.3913
v  -5.0669 14.9049 2.3311
v  -5.0669 14.2364 2.3311
v  -5.1441 14.2364 12.3913
v  -5.0618 8.8263 1.6626
v  -4.9846 8.8263 -8.3976
v  -4.9846 8.1578 -8.3976
v  -5.0618 8.1578 1.6626
v  -5.1441 8.8263 12.3913
v  -5.0669 8.8263 2.3311
v  -5.0669 8.1578 2.3311
v  -5.1441 8.1578 12.3913
# 40 vertices

vn -1.0000 -0.0000 -0.0077
# 1 vertex normals

vt 1.5772 0.4698 0.0000
vt 1.5772 -0.4402 0.0000
vt 1.6377 -0.4402 0.0000
vt 1.6377 0.4698 0.0000
vt 1.6377 0.5302 0.0000
vt 1.6377 1.4402 0.0000
vt 1.5772 1.4402 0.0000
vt 1.5772 0.5302 0.0000
vt 1.0740 0.5302 0.0000
vt 1.0740 1.4402 0.0000
vt 1.0135 1.4402 0.0000
vt 1.0135 0.5302 0.0000
vt 1.0740 -0.4402 0.0000
vt 1.0740 0.4698 0.0000
vt 1.0135 0.4698 0.0000
vt 1.0135 -0.4402 0.0000
vt 0.5344 0.5302 0.0000
vt 0.5344 1.4402 0.0000
vt 0.4739 1.4402 0.0000
vt 0.4739 0.5302 0.0000
vt 0.5344 -0.4402 0.0000
vt 0.5344 0.4698 0.0000
vt 0.4739 0.4698 0.0000
vt 0.4739 -0.4402 0.0000
vt -0.0274 0.5302 0.0000
vt -0.0274 1.4402 0.0000
vt -0.0878 1.4402 0.0000
vt -0.0878 0.5302 0.0000
vt -0.0274 -0.4402 0.0000
vt -0.0274 0.4698 0.0000
vt -0.0878 0.4698 0.0000
vt -0.0878 -0.4402 0.0000
vt -0.5772 0.5302 0.0000
vt -0.5772 1.4402 0.0000
vt -0.6377 1.4402 0.0000
vt -0.6377 0.5302 0.0000
vt -0.5772 -0.4402 0.0000
vt -0.5772 0.4698 0.0000
vt -0.6377 0.4698 0.0000
vt -0.6377 -0.4402 0.0000
# 40 texture coords

o Object04
g Object04
usemtl Mueble
s off
f 129/273/35 130/274/35 131/275/35 
f 131/275/35 132/276/35 129/273/35 
f 133/277/35 134/278/35 135/279/35 
f 135/279/35 136/280/35 133/277/35 
f 137/281/35 138/282/35 139/283/35 
f 139/283/35 140/284/35 137/281/35 
f 141/285/35 142/286/35 143/287/35 
f 143/287/35 144/288/35 141/285/35 
f 145/289/35 146/290/35 147/291/35 
f 147/291/35 148/292/35 145/289/35 
f 149/293/35 150/294/35 151/295/35 
f 151/295/35 152/296/35 149/293/35 
f 153/297/35 154/298/35 155/299/35 
f 155/299/35 156/300/35 153/297/35 
f 157/301/35 158/302/35 159/303/35 
f 159/303/35 160/304/35 157/301/35 
f 161/305/35 162/306/35 163/307/35 
f 163/307/35 164/308/35 161/305/35 
f 165/309/35 166/310/35 167/311/35 
f 167/311/35 168/312/35 165/309/35 
# 20 faces

