# 3ds Max Wavefront OBJ Exporter v0.97b - (c)2007 guruware
# File Created: 09.01.2021 23:23:35

mtllib espejo.mtl

#
# object Group_001
#

v  7.1022 0.0000 -22.1943
v  15.5676 0.0000 -22.1943
v  8.0382 1.0579 -22.1943
v  7.1022 19.1384 -22.1943
v  14.6543 18.2363 -22.1943
v  14.6543 1.0579 -22.1943
v  15.5676 19.1384 -22.1943
v  8.0382 18.2363 -22.1943
v  7.1022 19.1384 -22.4114
v  15.5676 19.1384 -22.4114
v  8.0382 18.2363 -22.4114
v  7.1022 0.0000 -22.4114
v  14.6543 0.9114 -22.4114
v  14.6543 18.2363 -22.4114
v  15.5676 0.0000 -22.4114
v  8.0382 0.9114 -22.4114
v  8.0382 18.2363 -22.2486
v  8.0382 0.9114 -22.2486
v  14.6543 0.9114 -22.2486
v  14.6543 18.2363 -22.2486
# 20 vertices

vn 0.0000 0.0000 1.0000
vn 0.0000 0.0000 -1.0000
vn 0.0000 1.0000 -0.0000
vn 1.0000 0.0000 -0.0000
vn 0.0000 -1.0000 -0.0000
vn -1.0000 0.0000 -0.0000
vn 0.0000 0.3473 -0.9377
# 7 vertex normals

vt 6.0000 -0.0000 0.0000
vt 7.0000 -0.0000 0.0000
vt 6.1106 0.0552 0.0000
vt 6.0000 0.9988 0.0000
vt 6.8921 0.9517 0.0000
vt 6.8921 0.0552 0.0000
vt 7.0000 0.9988 0.0000
vt 6.1106 0.9517 0.0000
vt 1.0000 0.9988 0.0000
vt 0.0000 0.9988 0.0000
vt 0.8894 0.9517 0.0000
vt 1.0000 0.0000 0.0000
vt 0.1079 0.0476 0.0000
vt 0.1079 0.9517 0.0000
vt 0.0000 0.0000 0.0000
vt 0.8894 0.0476 0.0000
vt -0.1923 0.9988 0.0000
vt 0.8077 0.9988 0.0000
vt -14.6722 8.6365 0.0000
vt -14.6920 8.6437 0.0000
vt -15.3254 8.3018 0.0000
vt -15.3056 8.2947 0.0000
vt -0.0844 0.9517 0.0000
vt 0.6971 0.9517 0.0000
vt 0.8893 0.9529 0.0000
vt 0.1078 0.9529 0.0000
vt 0.1078 0.0488 0.0000
vt 0.8893 0.0488 0.0000
vt -22.9802 0.0552 0.0000
vt -22.9738 0.0476 0.0000
vt -22.9738 0.9517 0.0000
vt -22.9802 0.9517 0.0000
vt -15.2504 8.3378 0.0000
vt -14.7554 8.6050 0.0000
vt -14.7604 8.6068 0.0000
vt -15.2554 8.3396 0.0000
vt 29.8826 0.9517 0.0000
vt 29.8826 0.0476 0.0000
vt 29.8890 0.0552 0.0000
vt 29.8890 0.9517 0.0000
vt 2.1483 -8.2008 0.0000
vt 1.5925 -8.4435 0.0000
vt 1.6055 -8.4493 0.0000
vt 2.1613 -8.2066 0.0000
# 44 texture coords

o Group_001
g Group_001
usemtl Material__122
s off
f 1/1/1 2/2/1 3/3/1 
f 3/3/1 4/4/1 1/1/1 
f 2/2/1 5/5/1 6/6/1 
f 6/6/1 3/3/1 2/2/1 
f 7/7/1 8/8/1 5/5/1 
f 5/5/1 2/2/1 7/7/1 
f 4/4/1 3/3/1 8/8/1 
f 8/8/1 7/7/1 4/4/1 
f 9/9/2 10/10/2 11/11/2 
f 11/11/2 12/12/2 9/9/2 
f 10/10/2 13/13/2 14/14/2 
f 14/14/2 11/11/2 10/10/2 
f 15/15/2 16/16/2 13/13/2 
f 13/13/2 10/10/2 15/15/2 
f 12/12/2 11/11/2 16/16/2 
f 16/16/2 15/15/2 12/12/2 
f 10/17/3 9/18/3 4/18/3 
f 4/18/3 7/17/3 10/17/3 
f 15/15/4 10/10/4 7/10/4 
f 7/10/4 2/15/4 15/15/4 
f 15/19/5 2/20/5 1/21/5 
f 1/21/5 12/22/5 15/19/5 
f 1/12/6 4/9/6 9/9/6 
f 9/9/6 12/12/6 1/12/6 
f 16/16/4 11/11/4 17/11/4 
f 17/11/4 18/16/4 16/16/4 
f 13/13/3 16/16/3 18/16/3 
f 18/16/3 19/13/3 13/13/3 
f 19/13/6 20/14/6 14/14/6 
f 14/14/6 13/13/6 19/13/6 
f 14/23/5 20/23/5 17/24/5 
f 17/24/5 11/24/5 14/23/5 
f 17/25/2 20/26/2 19/27/2 
f 19/27/2 18/28/2 17/25/2 
f 3/29/4 18/30/4 17/31/4 
f 17/31/4 8/32/4 3/29/4 
f 17/33/5 20/34/5 5/35/5 
f 5/35/5 8/36/5 17/33/5 
f 20/37/6 19/38/6 6/39/6 
f 6/39/6 5/40/6 20/37/6 
f 3/41/7 6/42/7 19/43/7 
f 19/43/7 18/44/7 3/41/7 
# 42 faces

