# 3ds Max Wavefront OBJ Exporter v0.97b - (c)2007 guruware
# File Created: 09.01.2021 22:16:43

mtllib cajas.mtl

#
# object Foodbox01
#

v  2.2633 1.5671 -6.1305
v  -4.6919 1.5671 -5.9904
v  -4.7249 1.5671 -7.6326
v  2.2302 1.5671 -7.7727
v  2.2633 8.9101 -6.1305
v  2.2302 8.9101 -7.7727
v  -4.7249 8.9101 -7.6326
v  -4.6919 8.9101 -5.9904
v  2.4003 1.6299 -4.5055
v  -4.5548 1.6299 -4.3654
v  -4.5879 1.6299 -6.0076
v  2.3673 1.6299 -6.1477
v  2.4003 8.9729 -4.5055
v  2.3673 8.9729 -6.1477
v  -4.5879 8.9729 -6.0076
v  -4.5548 8.9729 -4.3654
v  2.4265 1.6379 -2.8713
v  -4.5286 1.6379 -2.7312
v  -4.5616 1.6379 -4.3734
v  2.3935 1.6379 -4.5135
v  2.4265 8.9809 -2.8713
v  2.3935 8.9809 -4.5135
v  -4.5616 8.9809 -4.3734
v  -4.5286 8.9809 -2.7312
# 24 vertices

vn 0.0000 -1.0000 -0.0000
vn 0.0000 1.0000 -0.0000
vn 0.9998 0.0000 -0.0201
vn -0.0201 0.0000 -0.9998
vn -0.9998 0.0000 0.0201
vn 0.0201 0.0000 0.9998
# 6 vertex normals

vt 1.0000 0.0000 0.0000
vt 1.0000 1.0000 0.0000
vt 0.0000 1.0000 0.0000
vt 0.0000 0.0000 0.0000
# 4 texture coords

o Foodbox01
g Foodbox01
usemtl Material__81
s off
f 1/1/1 2/2/1 3/3/1 
f 3/3/1 4/4/1 1/1/1 
f 5/4/2 6/1/2 7/2/2 
f 7/2/2 8/3/2 5/4/2 
f 1/4/3 4/1/3 6/2/3 
f 6/2/3 5/3/3 1/4/3 
f 4/4/4 3/1/4 7/2/4 
f 7/2/4 6/3/4 4/4/4 
f 3/4/5 2/1/5 8/2/5 
f 8/2/5 7/3/5 3/4/5 
f 2/4/6 1/1/6 5/2/6 
f 5/2/6 8/3/6 2/4/6 
usemtl Material__80
f 9/1/1 10/2/1 11/3/1 
f 11/3/1 12/4/1 9/1/1 
f 13/4/2 14/1/2 15/2/2 
f 15/2/2 16/3/2 13/4/2 
f 9/4/3 12/1/3 14/2/3 
f 14/2/3 13/3/3 9/4/3 
f 12/4/4 11/1/4 15/2/4 
f 15/2/4 14/3/4 12/4/4 
f 11/4/5 10/1/5 16/2/5 
f 16/2/5 15/3/5 11/4/5 
f 10/4/6 9/1/6 13/2/6 
f 13/2/6 16/3/6 10/4/6 
usemtl Material__79
f 17/1/1 18/2/1 19/3/1 
f 19/3/1 20/4/1 17/1/1 
f 21/4/2 22/1/2 23/2/2 
f 23/2/2 24/3/2 21/4/2 
f 17/4/3 20/1/3 22/2/3 
f 22/2/3 21/3/3 17/4/3 
f 20/4/4 19/1/4 23/2/4 
f 23/2/4 22/3/4 20/4/4 
f 19/4/5 18/1/5 24/2/5 
f 24/2/5 23/3/5 19/4/5 
f 18/4/6 17/1/6 21/2/6 
f 21/2/6 24/3/6 18/4/6 
# 36 faces

