# 3ds Max Wavefront OBJ Exporter v0.97b - (c)2007 guruware
# File Created: 25.01.2021 17:36:25

mtllib techo.mtl

#
# object Group_1_001
#

#
# object Pyramid001
#

v  -0.8177 37.0879 0.2879
v  -72.3885 0.0000 69.5652
v  70.7531 0.0000 69.5652
v  70.7531 0.0000 -68.9893
v  -72.3885 0.0000 -68.9893
v  -0.8177 0.0000 0.2879
# 6 vertices

vn 0.0000 0.8816 0.4720
vn 0.4601 0.8879 -0.0000
vn 0.0000 0.8816 -0.4720
vn -0.4601 0.8879 -0.0000
vn 0.0000 -1.0000 -0.0000
# 5 vertex normals

vt 0.5000 1.0000 0.0000
vt 0.0000 0.0000 0.0000
vt 1.0000 0.0000 0.0000
vt -0.0166 0.0000 0.0000
vt 0.9834 0.0000 0.0000
vt 0.0000 1.0000 0.0000
vt 0.5000 0.5000 0.0000
vt 1.0000 1.0000 0.0000
# 8 texture coords

o Pyramid001
g Pyramid001
usemtl Material__33
s 4
f 1/1/1 2/2/1 3/3/1 
s 2
f 1/1/2 3/4/2 4/5/2 
s 16
f 1/1/3 4/2/3 5/3/3 
s 32
f 1/1/4 5/4/4 2/5/4 
usemtl Material__27
s 8
f 2/6/5 6/7/5 3/8/5 
f 3/8/5 6/7/5 4/3/5 
f 4/3/5 6/7/5 5/2/5 
f 5/2/5 6/7/5 2/6/5 
# 8 faces

