# 3ds Max Wavefront OBJ Exporter v0.97b - (c)2007 guruware
# File Created: 10.01.2021 15:31:24

mtllib chimenea1.mtl

#
# object Layer0_001
#

v  -12.9907 0.6149 -13.2228
v  6.5484 0.6149 13.2741
v  -12.7784 0.6149 13.4280
v  6.5307 0.6149 11.0532
v  6.3538 0.6149 -11.1558
v  6.3362 0.6149 -13.3767
v  12.9730 0.6149 11.0019
v  12.7961 0.6149 -11.2071
v  -6.3380 18.3827 8.9346
v  6.3597 18.3827 -10.4155
v  6.5248 18.3827 10.3129
v  -6.4795 18.3827 -8.8325
v  6.5307 5.7972 11.0532
v  6.3538 5.7972 -11.1558
v  6.5248 5.7972 10.3129
v  6.3597 5.7972 -10.4155
v  6.3597 6.5375 -10.4155
v  6.5248 6.5375 10.3129
v  -13.4951 42.0730 -9.1468
v  3.8317 42.0730 9.2238
v  -13.3477 42.0730 9.3606
v  3.6843 42.0730 -9.2837
v  13.5128 6.5375 11.3677
v  6.5337 6.5375 11.4233
v  13.3300 6.5375 -11.5815
v  6.3509 6.5375 -11.5259
v  -13.5305 24.3053 -13.5886
v  -12.9553 24.3053 -8.7810
v  -13.4922 24.3053 -8.7767
v  3.1504 24.3053 -8.9092
v  -13.3507 24.3053 8.9905
v  7.0882 24.3053 13.6399
v  -13.3123 24.3053 13.8024
v  3.2919 24.3053 8.8579
v  6.8701 24.3053 -13.7511
v  -12.8138 24.3053 8.9862
v  -12.9907 23.5649 -13.2228
v  3.1504 23.5649 -8.9092
v  -12.9553 23.5649 -8.7810
v  -12.8138 23.5649 8.9862
v  6.5484 23.5649 13.2741
v  -12.7784 23.5649 13.4280
v  3.2919 23.5649 8.8579
v  6.3362 23.5649 -13.3767
v  -12.9553 41.3327 -8.7810
v  3.2919 41.3327 8.8579
v  -12.8138 41.3327 8.9862
v  3.1504 41.3327 -8.9092
v  12.9730 5.7972 11.0019
v  12.7961 5.7972 -11.2071
v  6.3509 5.7972 -11.5259
v  6.5337 5.7972 11.4233
v  -6.3380 6.5375 8.9346
v  -6.4795 6.5375 -8.8325
v  3.8317 41.3327 9.2238
v  3.6843 41.3327 -9.2837
v  3.2948 41.3327 9.2281
v  3.1474 41.3327 -9.2794
v  -13.4951 41.3327 -9.1468
v  -13.4922 41.3327 -8.7767
v  -13.5305 23.5649 -13.5886
v  6.8701 23.5649 -13.7511
v  -13.5276 23.5649 -13.2185
v  6.8730 23.5649 -13.3810
v  7.0882 23.5649 13.6399
v  6.5514 23.5649 13.6442
v  -13.3123 23.5649 13.8024
v  -13.3153 23.5649 13.4323
v  13.5128 5.7972 11.3677
v  13.5099 5.7972 10.9976
v  13.3300 5.7972 -11.5815
v  12.7932 5.7972 -11.5773
v  -13.3477 41.3327 9.3606
v  -12.8109 41.3327 9.3564
v  -13.4922 23.5649 -8.7767
v  -13.3507 23.5649 8.9905
# 76 vertices

vn 0.0000 -1.0000 -0.0000
vn -1.0000 0.0000 0.0080
vn 0.0000 0.0000 -0.0000
vn 1.0000 0.0000 -0.0080
vn 0.0080 0.0000 1.0000
vn -0.0080 0.0000 -1.0000
vn 0.0000 1.0000 -0.0000
vn 0.1727 0.0000 0.9850
vn 0.1570 0.0000 -0.9876
# 9 vertex normals

vt 0.0000 0.0000 0.0000
vt 1.2500 1.3333 0.0000
vt 0.2500 1.2917 0.0000
vt 1.2500 1.2917 0.0000
vt 0.2500 1.3333 0.0000
vt 1.2500 2.2917 0.0000
vt 0.2500 2.2917 0.0000
vt 1.5000 1.2917 0.0000
vt 1.5000 0.0000 0.0000
vt 0.0000 1.2917 0.0000
vt 0.7500 0.0000 0.0000
vt 0.7500 1.2917 0.0000
vt -0.7500 0.0000 0.0000
vt -1.0000 0.2917 0.0000
vt -1.0000 0.0000 0.0000
vt -0.7500 0.2917 0.0000
vt -0.1250 0.2917 0.0000
vt -1.3750 0.0000 0.0000
vt -0.1250 0.0000 0.0000
vt -1.3750 0.2917 0.0000
vt 0.7500 0.2917 0.0000
vt 1.0000 0.0000 0.0000
vt 1.0000 0.2917 0.0000
vt -0.1667 0.2917 0.0000
vt -1.5000 0.0000 0.0000
vt -0.1667 0.3333 0.0000
vt -0.1667 1.0000 0.0000
vt -1.3333 1.0000 0.0000
vt -1.3333 0.2917 0.0000
vt -1.5000 1.2917 0.0000
vt -1.3333 0.3333 0.0000
vt -0.7500 1.2917 0.0000
vt 0.0000 2.2917 0.0000
vt 0.6250 1.3333 0.0000
vt 0.6250 2.2917 0.0000
vt 0.0000 1.3333 0.0000
vt -0.6250 2.2917 0.0000
vt -0.6250 1.3333 0.0000
vt -0.2500 2.2917 0.0000
vt -1.2500 1.3333 0.0000
vt -0.2500 1.3333 0.0000
vt -1.2500 2.2917 0.0000
vt -0.4615 1.8462 0.0000
vt -2.3077 0.6154 0.0000
vt -0.4615 0.6154 0.0000
vt -2.3077 1.8462 0.0000
vt -0.3077 -1.3846 0.0000
vt -2.3077 -0.4639 0.0000
vt -2.4615 -1.3846 0.0000
vt -0.4615 -0.4639 0.0000
vt 0.3815 1.8462 0.0000
vt 1.3150 0.6154 0.0000
vt 1.3150 1.8462 0.0000
vt 0.3815 0.6154 0.0000
vt -0.8379 0.6154 0.0000
vt -1.7714 1.8462 0.0000
vt -1.7714 0.6154 0.0000
vt -0.8379 1.8462 0.0000
vt -0.1528 1.5556 0.0000
vt -0.8472 1.5278 0.0000
vt -0.1528 1.5278 0.0000
vt -0.8472 1.5556 0.0000
vt 0.8333 -0.4167 0.0000
vt 0.8472 -0.4306 0.0000
vt 0.8472 -0.4167 0.0000
vt 0.1528 -0.4306 0.0000
vt 0.1667 -0.4167 0.0000
vt 0.1528 -0.4167 0.0000
vt -0.4167 1.5278 0.0000
vt -0.4306 1.5556 0.0000
vt -0.4306 1.5278 0.0000
vt 0.0139 1.5556 0.0000
vt 0.0139 1.5278 0.0000
vt 0.1528 0.0139 0.0000
vt 0.1667 0.0000 0.0000
vt 0.1667 0.0139 0.0000
vt 0.0139 0.8611 0.0000
vt -0.5139 0.8889 0.0000
vt -0.5139 0.8611 0.0000
vt 0.0139 0.8889 0.0000
vt -0.0139 0.0139 0.0000
vt 0.0000 0.0139 0.0000
vt 0.0000 -0.5000 0.0000
vt 0.0000 -0.5139 0.0000
vt -0.0139 -0.5139 0.0000
vt 0.0000 0.8611 0.0000
vt -1.0139 0.8611 0.0000
vt -1.0139 0.8889 0.0000
vt 1.0000 -0.5000 0.0000
vt 1.0139 -0.5139 0.0000
vt 1.0139 -0.5000 0.0000
vt -0.0139 0.8889 0.0000
vt 0.5139 0.8611 0.0000
vt 0.5139 0.8889 0.0000
vt 0.5000 0.8611 0.0000
vt -0.0139 0.8611 0.0000
vt 1.0000 0.0139 0.0000
vt 1.0139 0.0139 0.0000
vt 0.5000 0.2222 0.0000
vt 0.6806 0.1944 0.0000
vt 0.6806 0.2222 0.0000
vt 0.5000 0.1944 0.0000
vt 0.9167 -0.5000 0.0000
vt 0.9306 -0.6806 0.0000
vt 0.9306 -0.5000 0.0000
vt 0.9167 -0.6806 0.0000
vt 0.9167 -0.6667 0.0000
vt -0.0694 0.2222 0.0000
vt -0.9167 0.1944 0.0000
vt -0.0694 0.1944 0.0000
vt -0.9306 0.1944 0.0000
vt -0.9306 0.2222 0.0000
vt 0.0833 -0.6667 0.0000
vt 0.0694 -0.6806 0.0000
vt 0.0694 -0.6667 0.0000
vt -0.6667 0.1944 0.0000
vt -0.6806 0.2222 0.0000
vt -0.6806 0.1944 0.0000
vt -0.5000 0.2222 0.0000
vt -0.5000 0.1944 0.0000
vt 0.0694 -0.5000 0.0000
vt 0.0833 -0.5000 0.0000
vt 0.8472 1.5556 0.0000
vt 0.1667 1.5278 0.0000
vt 0.8472 1.5278 0.0000
vt 0.1528 1.5278 0.0000
vt 0.1528 1.5556 0.0000
vt 0.8472 0.0000 0.0000
vt 0.8472 0.0139 0.0000
vt 0.8333 0.0000 0.0000
vt 0.1667 0.8889 0.0000
vt 0.1667 0.8611 0.0000
vt 0.0000 0.8889 0.0000
vt 1.0139 0.8889 0.0000
vt 1.0000 0.8611 0.0000
vt 1.0139 0.8611 0.0000
vt 0.8333 0.8611 0.0000
vt 0.8333 0.8889 0.0000
vt 0.8333 0.0139 0.0000
vt -0.0139 1.5556 0.0000
vt 0.4306 1.5278 0.0000
vt 0.4306 1.5556 0.0000
vt 0.4167 1.5278 0.0000
vt 0.0000 1.5278 0.0000
vt -0.0139 1.5278 0.0000
# 145 texture coords

o Layer0_001
g Layer0_001
usemtl Material__36
s off
f 1/1/1 2/1/1 3/1/1 
f 2/1/1 1/1/1 4/1/1 
f 4/1/1 1/1/1 5/1/1 
f 5/1/1 1/1/1 6/1/1 
f 5/1/1 7/1/1 4/1/1 
f 7/1/1 5/1/1 8/1/1 
f 9/1/1 10/1/1 11/1/1 
f 10/1/1 9/1/1 12/1/1 
f 13/1/2 5/1/2 4/1/2 
f 5/1/2 13/1/2 14/1/2 
f 14/1/3 13/1/3 15/1/3 
f 14/1/3 15/1/3 16/1/3 
f 17/1/4 15/1/4 16/1/4 
f 15/1/4 17/1/4 18/1/4 
f 19/1/1 20/1/1 21/1/1 
f 20/1/1 19/1/1 22/1/1 
f 18/1/1 23/1/1 24/1/1 
f 23/1/1 18/1/1 25/1/1 
f 25/1/1 18/1/1 17/1/1 
f 25/1/1 17/1/1 26/1/1 
f 27/1/1 28/1/1 29/1/1 
f 28/1/1 27/1/1 30/1/1 
f 31/1/1 32/1/1 33/1/1 
f 32/1/1 31/1/1 34/1/1 
f 32/1/1 34/1/1 35/1/1 
f 34/1/3 31/1/3 36/1/3 
f 35/1/1 34/1/1 30/1/1 
f 35/1/1 30/1/1 27/1/1 
f 37/1/1 38/1/1 39/1/1 
f 40/1/1 41/1/1 42/1/1 
f 41/1/1 40/1/1 43/1/1 
f 41/1/1 43/1/1 44/1/1 
f 44/1/1 43/1/1 38/1/1 
f 44/1/1 38/1/1 37/1/1 
f 28/1/5 38/1/5 30/1/5 
f 38/1/5 28/1/5 39/1/5 
f 34/1/2 38/1/2 43/1/2 
f 38/1/2 34/1/2 30/1/2 
f 40/1/6 34/1/6 43/1/6 
f 34/1/6 40/1/6 36/1/6 
f 45/1/1 46/1/1 47/1/1 
f 46/1/1 45/1/1 48/1/1 
f 15/1/1 49/1/1 13/1/1 
f 49/1/1 15/1/1 50/1/1 
f 50/1/1 15/1/1 16/1/1 
f 50/1/1 16/1/1 14/1/1 
f 17/1/2 14/1/2 16/1/2 
f 14/1/2 17/1/2 51/1/2 
f 51/1/2 17/1/2 26/1/2 
f 24/1/2 13/1/2 52/1/2 
f 13/1/2 24/1/2 15/1/2 
f 15/1/2 24/1/2 18/1/2 
f 36/2/2 39/3/2 40/4/2 
f 39/3/2 36/2/2 28/5/2 
f 28/5/2 36/2/2 47/6/2 
f 28/5/2 47/6/2 45/7/2 
f 42/8/2 1/1/2 3/9/2 
f 1/1/2 42/8/2 37/10/2 
f 37/10/3 42/8/3 40/4/3 
f 37/10/3 40/4/3 39/3/3 
f 42/10/5 2/11/5 41/12/5 
f 2/11/5 42/10/5 3/1/5 
f 5/13/6 50/14/6 8/15/6 
f 50/14/6 5/13/6 14/16/6 
f 50/17/4 7/18/4 8/19/4 
f 7/18/4 50/17/4 49/20/4 
f 13/21/5 7/22/5 49/23/5 
f 7/22/5 13/21/5 4/11/5 
f 44/10/4 5/19/4 6/1/4 
f 5/19/4 44/10/4 16/24/4 
f 5/19/4 16/24/4 4/18/4 
f 4/18/4 16/24/4 2/25/4 
f 16/24/4 44/10/4 17/26/4 
f 17/26/4 44/10/4 10/27/4 
f 10/27/4 44/10/4 11/28/4 
f 2/25/4 15/29/4 41/30/4 
f 15/29/4 2/25/4 16/24/4 
f 41/30/4 15/29/4 18/31/4 
f 41/30/4 18/31/4 11/28/4 
f 41/30/4 11/28/4 44/10/4 
f 1/1/6 44/32/6 6/13/6 
f 44/32/6 1/1/6 37/10/6 
f 47/33/5 34/34/5 46/35/5 
f 34/34/5 47/33/5 36/36/5 
f 28/36/6 48/37/6 30/38/6 
f 48/37/6 28/36/6 45/33/6 
f 48/39/4 34/40/4 30/41/4 
f 34/40/4 48/39/4 46/42/4 
f 12/43/4 53/44/4 54/45/4 
f 53/44/4 12/43/4 9/46/4 
f 17/47/7 53/48/7 18/49/7 
f 53/48/7 17/47/7 54/50/7 
f 12/51/8 17/52/8 10/53/8 
f 17/52/8 12/51/8 54/54/8 
f 53/55/9 11/56/9 18/57/9 
f 11/56/9 53/55/9 9/58/9 
f 22/59/4 55/60/4 56/61/4 
f 55/60/4 22/59/4 20/62/4 
f 46/63/1 55/64/1 57/65/1 
f 55/64/1 46/63/1 56/66/1 
f 56/66/1 46/63/1 48/67/1 
f 56/66/1 48/67/1 58/68/1 
f 58/69/6 22/70/6 56/71/6 
f 22/70/6 58/69/6 19/72/6 
f 19/72/6 58/69/6 59/73/6 
f 59/74/1 45/75/1 60/76/1 
f 45/75/1 59/74/1 48/67/1 
f 48/67/1 59/74/1 58/68/1 
f 61/77/6 35/78/6 62/79/6 
f 35/78/6 61/77/6 27/80/6 
f 61/81/1 37/1/1 63/82/1 
f 37/1/1 61/81/1 44/83/1 
f 44/83/1 61/81/1 64/84/1 
f 64/84/1 61/81/1 62/85/1 
f 35/80/4 64/86/4 62/77/4 
f 64/86/4 35/80/4 65/87/4 
f 65/87/4 35/80/4 32/88/4 
f 41/89/1 65/90/1 66/91/1 
f 65/90/1 41/89/1 64/84/1 
f 64/84/1 41/89/1 44/83/1 
f 33/92/5 65/93/5 32/94/5 
f 65/93/5 33/92/5 66/95/5 
f 66/95/5 33/92/5 67/96/5 
f 68/97/1 66/91/1 67/98/1 
f 66/91/1 68/97/1 41/89/1 
f 41/89/3 68/97/3 42/22/3 
f 24/99/5 69/100/5 23/101/5 
f 69/100/5 24/99/5 52/102/5 
f 13/103/1 69/104/1 52/105/1 
f 69/104/1 13/103/1 70/106/1 
f 70/106/3 13/103/3 49/107/3 
f 25/108/4 70/109/4 71/110/4 
f 70/109/4 25/108/4 69/111/4 
f 69/111/4 25/108/4 23/112/4 
f 50/113/1 70/106/1 49/107/1 
f 70/106/1 50/113/1 71/114/1 
f 71/114/1 50/113/1 72/115/1 
f 72/116/6 25/117/6 71/118/6 
f 25/117/6 72/116/6 26/119/6 
f 26/119/6 72/116/6 51/120/6 
f 51/121/1 50/113/1 14/122/1 
f 50/113/1 51/121/1 72/115/1 
f 21/123/2 60/124/2 73/125/2 
f 60/124/2 21/123/2 59/126/2 
f 59/126/2 21/123/2 19/127/2 
f 60/76/1 74/128/1 73/129/1 
f 74/128/1 60/76/1 47/130/1 
f 47/130/1 60/76/1 45/75/1 
f 29/131/2 63/86/2 75/132/2 
f 63/86/2 29/131/2 61/96/2 
f 61/96/2 29/131/2 27/92/2 
f 63/82/1 39/75/1 75/76/1 
f 39/75/1 63/82/1 37/1/1 
f 29/92/5 39/86/5 28/133/5 
f 39/86/5 29/92/5 75/96/5 
f 33/134/2 68/135/2 67/136/2 
f 68/135/2 33/134/2 76/137/2 
f 76/137/2 33/134/2 31/138/2 
f 76/77/6 36/133/6 40/86/6 
f 36/133/6 76/77/6 31/80/6 
f 76/139/1 42/22/1 68/97/1 
f 42/22/1 76/139/1 40/130/1 
f 21/140/5 55/141/5 20/142/5 
f 55/141/5 21/140/5 57/143/5 
f 57/143/5 21/140/5 74/144/5 
f 74/144/5 21/140/5 73/145/5 
f 47/130/1 57/65/1 74/128/1 
f 57/65/1 47/130/1 46/63/1 
# 168 faces

